HIERARCHY
ROOT pelvis
{
	OFFSET 0.000000 0.000000 0.000000
	CHANNELS 6 Xposition Yposition Zposition Xrotation Yrotation Zrotation
	JOINT torso
	{
		OFFSET 0.000000 0.000000 0.236151
		CHANNELS 3 Xrotation Yrotation Zrotation
		JOINT head
		{
			OFFSET 0.000000 0.000000 0.223894
			CHANNELS 3 Xrotation Yrotation Zrotation
			End Site
			{
				OFFSET 0.000000 0.000000 0.095000
			}
		}
		JOINT right_upper_arm
		{
			OFFSET -0.024050 -0.183110 0.243500
			CHANNELS 3 Xrotation Yrotation Zrotation
			JOINT right_lower_arm
			{
				OFFSET 0.000000 -0.274788 0.000000
				CHANNELS 3 Xrotation Yrotation Zrotation
				JOINT right_hand
				{
					OFFSET 0.000000 -0.258947 0.000000
					CHANNELS 3 Xrotation Yrotation Zrotation
					End Site
					{
						OFFSET 0.000000 -0.010000 0.000000
					}
				}
			}
		}
		JOINT left_upper_arm
		{
			OFFSET -0.024050 0.183110 0.243500
			CHANNELS 3 Xrotation Yrotation Zrotation
			JOINT left_lower_arm
			{
				OFFSET 0.000000 0.274788 0.000000
				CHANNELS 3 Xrotation Yrotation Zrotation
				JOINT left_hand
				{
					OFFSET 0.000000 0.258947 0.000000
					CHANNELS 3 Xrotation Yrotation Zrotation
					End Site
					{
						OFFSET 0.000000 0.010000 0.000000
					}
				}
			}
		}
	}
	JOINT right_thigh
	{
		OFFSET 0.000000 -0.084887 0.000000
		CHANNELS 3 Xrotation Yrotation Zrotation
		JOINT right_shin
		{
			OFFSET 0.000000 0.000000 -0.421546
			CHANNELS 3 Xrotation Yrotation Zrotation
			JOINT right_foot
			{
				OFFSET 0.000000 0.000000 -0.409870
				CHANNELS 3 Xrotation Yrotation Zrotation
				End Site
				{
					OFFSET 0.160000 0.000000 0.000000
				}
			}
		}
	}
	JOINT left_thigh
	{
		OFFSET 0.000000 0.084887 0.000000
		CHANNELS 3 Xrotation Yrotation Zrotation
		JOINT left_shin
		{
			OFFSET 0.000000 0.000000 -0.421546
			CHANNELS 3 Xrotation Yrotation Zrotation
			JOINT left_foot
			{
				OFFSET 0.000000 0.000000 -0.409870
				CHANNELS 3 Xrotation Yrotation Zrotation
				End Site
				{
					OFFSET 0.156322 0.000000 0.000000
				}
			}
		}
	}
}
MOTION
Frames: 20
Frame Time: 0.010000
-0.742707 2.588427 1.669297 45.019628 2.396804 101.723899 -7.965278 37.354766 1.677380 2.620479 -10.088900 26.218923 60.822404 -27.284763 95.276692 0.000002 -0.000001 9.365909 -0.000001 -0.000002 -0.000001 -55.144441 -6.916902 -37.284568 0.000005 0.000006 -55.025073 0.000001 0.000000 -0.000000 -73.385875 -40.265007 -49.660328 -0.000025 110.422384 0.000059 2.019583 -16.567759 -0.768063 9.164710 20.823539 -4.439269 -0.000002 24.450938 -0.000002 -15.764515 -0.511588 25.661140 
-0.742136 2.588335 1.668860 45.022455 2.422409 101.783274 -8.023878 37.450801 1.704655 1.721963 -7.875821 26.862050 60.972020 -27.362687 95.326191 0.000002 -0.000000 9.387863 -0.000002 -0.000002 -0.000001 -54.729599 -6.876040 -37.634810 0.000001 0.000007 -54.039538 -0.000001 -0.000002 0.000000 -73.443078 -40.274391 -49.687451 -0.000030 110.495030 0.000052 2.003740 -16.591995 -0.850798 9.192781 20.743687 -4.383813 -0.000002 24.603216 -0.000002 -15.752214 -0.567523 25.641053 
-0.741548 2.588216 1.668380 45.025396 2.447639 101.850237 -8.079412 37.554234 1.732714 0.787200 -5.573767 27.399078 61.136695 -27.439988 95.435802 0.000002 -0.000002 9.318979 -0.000000 0.000001 0.000001 -54.446088 -6.826547 -37.939624 0.000005 0.000006 -53.063265 0.000000 -0.000000 -0.000000 -73.514644 -40.282605 -49.724716 -0.000025 110.573154 0.000059 1.980963 -16.610967 -0.934819 9.214888 20.651270 -4.309120 -0.000002 24.786022 -0.000003 -15.740897 -0.637359 25.612893 
-0.740946 2.588036 1.667845 45.020270 2.475437 101.930205 -8.133927 37.677192 1.760226 -0.224620 -3.084935 27.873469 61.343029 -27.517669 95.638522 0.000001 -0.000000 9.151989 0.000002 -0.000003 -0.000001 -54.268093 -6.852686 -38.424199 0.000002 0.000006 -51.976018 -0.000000 0.000001 -0.000000 -73.615253 -40.294981 -49.788247 -0.000027 110.662554 0.000053 1.953139 -16.620140 -1.016831 9.224651 20.539446 -4.237617 -0.000002 24.990117 -0.000003 -15.723191 -0.709912 25.588699 
-0.740331 2.587781 1.667251 45.007470 2.509111 102.020726 -8.187287 37.811254 1.787774 -1.237003 -0.585489 28.259161 61.514419 -27.597992 95.875400 0.000002 0.000001 8.923895 -0.000001 -0.000001 -0.000003 -54.194525 -6.950666 -38.987980 0.000002 0.000005 -50.865764 -0.000000 0.000001 -0.000000 -73.743654 -40.307603 -49.880404 -0.000028 110.755534 0.000055 1.921742 -16.619069 -1.092817 9.214229 20.397214 -4.161058 -0.000002 25.235397 -0.000000 -15.693734 -0.782699 25.579769 
-0.739708 2.587453 1.666606 44.990815 2.552882 102.128397 -8.250087 37.954002 1.825473 -2.287227 2.061005 28.577204 61.558822 -27.704857 96.075859 -0.000000 -0.000003 8.649947 -0.000002 -0.000003 0.000001 -54.232535 -7.095357 -39.622300 0.000003 0.000007 -49.814970 0.000001 -0.000002 0.000000 -73.900126 -40.320072 -50.006728 -0.000027 110.851600 0.000054 1.880270 -16.605204 -1.171750 9.186391 20.233100 -4.097146 -0.000002 25.507394 -0.000001 -15.642093 -0.847349 25.598379 
-0.739075 2.587044 1.665918 44.974142 2.604452 102.247085 -8.320325 38.096049 1.872053 -3.295762 4.677328 28.810646 61.439075 -27.839610 96.185818 -0.000000 -0.000001 8.380714 0.000001 0.000002 0.000000 -54.332987 -7.145618 -40.262073 0.000006 0.000004 -48.799584 0.000002 0.000001 0.000001 -74.065376 -40.332311 -50.151644 -0.000026 110.940714 0.000056 1.831178 -16.581708 -1.253533 9.140268 20.038680 -4.035254 -0.000002 25.830672 -0.000002 -15.582438 -0.906685 25.640935 
-0.738436 2.586525 1.665196 44.965102 2.665540 102.383265 -8.401559 38.260551 1.927520 -4.307871 7.398386 28.979796 61.107250 -28.014661 96.145786 0.000002 -0.000003 8.170382 -0.000002 -0.000002 -0.000001 -54.425563 -7.054222 -41.011184 0.000005 0.000007 -47.727938 0.000004 0.000002 -0.000000 -74.231780 -40.341628 -50.310374 -0.000027 111.019978 0.000059 1.772612 -16.549034 -1.352477 9.081662 19.829291 -3.994278 -0.000002 26.184070 -0.000002 -15.509369 -0.952264 25.703795 
-0.737783 2.585881 1.664454 44.970717 2.728187 102.526528 -8.484047 38.456035 1.983970 -5.249862 10.035827 29.082536 60.594979 -28.224819 95.948633 0.000002 -0.000001 8.065016 -0.000001 -0.000002 -0.000001 -54.462955 -6.821250 -41.668843 0.000004 0.000004 -46.714020 0.000003 -0.000001 0.000000 -74.374551 -40.346163 -50.463674 -0.000026 111.081757 0.000060 1.701764 -16.518826 -1.469165 9.014113 19.602809 -3.940362 -0.000002 26.589389 -0.000002 -15.433513 -0.987966 25.773943 
-0.737095 2.585093 1.663706 44.990873 2.785783 102.683876 -8.555854 38.717563 2.026683 -6.166700 12.714259 29.137543 60.138149 -28.471534 95.776095 0.000001 -0.000003 8.010810 -0.000001 -0.000000 -0.000001 -54.475724 -6.538812 -42.359553 0.000004 0.000004 -45.682539 0.000000 -0.000000 -0.000000 -74.488691 -40.349872 -50.612282 -0.000025 111.134404 0.000052 1.625189 -16.493688 -1.610954 8.954762 19.372156 -3.890926 -0.000002 27.025401 -0.000001 -15.356128 -1.011747 25.849742 
-0.736367 2.584110 1.662956 45.021130 2.829640 102.841796 -8.604273 39.045565 2.044795 -6.996849 15.235101 29.143352 59.839342 -28.727810 95.702220 0.000002 -0.000002 8.006320 -0.000000 -0.000001 -0.000000 -54.490580 -6.295820 -43.050235 0.000004 0.000006 -44.624901 0.000003 -0.000001 0.000001 -74.559725 -40.360124 -50.740092 -0.000027 111.174880 0.000057 1.541501 -16.480879 -1.776306 8.901564 19.118449 -3.830011 -0.000002 27.512296 -0.000001 -15.280740 -1.032233 25.931576 
-0.735598 2.582918 1.662202 45.062497 2.860915 103.006718 -8.627478 39.468187 2.038437 -7.770944 17.707516 29.088936 59.732333 -29.007926 95.779080 0.000001 0.000000 8.030163 -0.000002 0.000002 -0.000001 -54.570162 -6.283411 -43.786686 0.000001 0.000006 -43.622376 0.000001 0.000001 -0.000000 -74.592899 -40.382452 -50.857937 -0.000021 111.206148 0.000056 1.444050 -16.470373 -1.979712 8.860413 18.856925 -3.790720 -0.000002 28.007396 -0.000002 -15.185693 -1.036368 26.030804 
-0.734790 2.581523 1.661453 45.114178 2.882397 103.165677 -8.624134 39.962658 2.011554 -8.427561 19.945450 28.963141 59.835148 -29.304537 96.036114 0.000004 -0.000004 8.061126 -0.000000 -0.000002 0.000000 -54.758955 -6.543252 -44.518937 0.000003 0.000007 -42.710481 0.000003 0.000002 -0.000000 -74.588077 -40.417016 -50.958419 -0.000026 111.222391 0.000052 1.320578 -16.465295 -2.211674 8.830946 18.569590 -3.764067 -0.000002 28.528326 -0.000003 -15.085028 -1.036107 26.151471 
-0.733971 2.579963 1.660714 45.195850 2.908725 103.323174 -8.608548 40.545833 1.982874 -8.987842 22.067901 28.742802 59.592888 -29.721193 96.056263 0.000002 0.000000 8.240417 0.000001 -0.000003 -0.000000 -55.039010 -6.960402 -45.272198 0.000002 0.000004 -41.894140 -0.000001 0.000001 -0.000000 -74.534774 -40.466101 -51.032438 -0.000021 111.218784 0.000053 1.172303 -16.451653 -2.479130 8.812952 18.301243 -3.766134 -0.000001 29.028283 0.000001 -14.963228 -1.020508 26.291034 
-0.733174 2.578242 1.659989 45.305485 2.947213 103.467353 -8.587838 41.163904 1.960393 -9.414480 23.942373 28.440501 59.315883 -30.183381 96.074431 0.000001 -0.000004 8.439291 -0.000001 -0.000003 -0.000001 -55.341898 -7.321181 -46.002905 0.000002 0.000005 -41.094953 0.000002 -0.000002 0.000000 -74.432840 -40.525626 -51.083374 -0.000027 111.182263 0.000056 0.995090 -16.438059 -2.772469 8.793697 18.036130 -3.777133 -0.000002 29.511379 -0.000004 -14.830147 -0.993748 26.446749 
-0.732378 2.576387 1.659281 45.454878 3.004813 103.613567 -8.560217 41.828232 1.943432 -9.739163 25.704910 28.049140 59.038837 -30.713216 96.111929 0.000002 0.000003 8.649080 0.000000 -0.000001 -0.000000 -55.579032 -7.365406 -46.745852 0.000003 0.000006 -40.229111 0.000002 0.000001 0.000000 -74.267550 -40.588263 -51.130468 -0.000026 111.090718 0.000057 0.783127 -16.410617 -3.100596 8.788445 17.811453 -3.814084 -0.000002 29.941319 -0.000002 -14.685994 -0.962846 26.604869 
-0.731558 2.574382 1.658610 45.615319 3.066532 103.754460 -8.525684 42.469519 1.933358 -9.943517 27.258938 27.605012 58.799534 -31.287478 96.161400 0.000000 -0.000002 8.860746 -0.000002 0.000001 -0.000001 -55.659533 -6.969054 -47.439315 0.000004 0.000004 -39.229099 0.000002 -0.000000 -0.000000 -74.051477 -40.652125 -51.197732 -0.000025 110.940973 0.000055 0.538674 -16.391884 -3.460833 8.809201 17.589289 -3.802160 -0.000002 30.348491 -0.000003 -14.557894 -0.944608 26.751892 
-0.730662 2.572209 1.658012 45.755598 3.105374 103.907347 -8.459693 43.066306 1.905175 -10.042558 28.735364 27.110711 58.696194 -31.918092 96.255424 -0.000000 -0.000003 9.093399 0.000001 -0.000000 -0.000003 -55.513168 -6.111577 -48.076168 -0.000000 0.000002 -38.143851 0.000002 -0.000001 -0.000000 -73.761692 -40.725071 -51.332102 -0.000022 110.715618 0.000055 0.278469 -16.379600 -3.870723 8.885366 17.351522 -3.741189 -0.000002 30.708206 -0.000001 -14.445382 -0.945023 26.874016 
-0.729654 2.569797 1.657538 45.838171 3.094325 104.085225 -8.331519 43.559904 1.825620 -10.027377 30.053952 26.601529 59.310733 -32.449498 96.804920 -0.000000 -0.000002 9.217289 -0.000000 -0.000000 0.000000 -55.151199 -4.992701 -48.583245 0.000000 0.000004 -37.099108 0.000001 -0.000002 0.000000 -73.416112 -40.785850 -51.556539 -0.000026 110.418040 0.000059 0.007844 -16.400684 -4.316537 9.027594 17.061331 -3.655439 -0.000003 30.999558 -0.000004 -14.362262 -0.953326 26.963968 
-0.728516 2.567110 1.657262 45.862531 3.025574 104.293000 -8.134176 43.989492 1.690873 -9.896432 31.294492 26.050026 60.213302 -32.897630 97.411284 0.000003 -0.000001 9.467568 -0.000000 -0.000002 0.000002 -54.581411 -3.808098 -49.003862 -0.000001 0.000004 -36.216825 -0.000001 -0.000001 -0.000000 -72.976808 -40.840894 -51.839179 -0.000024 110.036738 0.000061 -0.271307 -16.440742 -4.807889 9.245301 16.738386 -3.548042 -0.000002 31.178133 -0.000000 -14.288175 -0.948747 27.022095 
